<svg xmlns="http://www.w3.org/2000/svg" width="52.256" height="52.256" viewBox="0 0 52.256 52.256"><path d="M48.13,0h-44A4.125,4.125,0,0,0,0,4.125v44a4.125,4.125,0,0,0,4.125,4.125h44a4.125,4.125,0,0,0,4.125-4.125v-44A4.125,4.125,0,0,0,48.13,0ZM33.561,17c0,.492-.206.688-.688.688-.925,0-1.85,0-2.771.038s-1.423.457-1.423,1.42c-.021,1.031,0,2.042,0,3.094h3.957c.564,0,.756.193.756.76v4.146c0,.56-.179.736-.746.739h-4V39.075c0,.6-.186.787-.777.787h-4.3c-.519,0-.722-.2-.722-.722V27.905H19.424c-.536,0-.729-.2-.729-.736V23c0-.536.2-.739.732-.739h3.414V19.252a7.526,7.526,0,0,1,.939-3.871,5.676,5.676,0,0,1,3.07-2.551,7.532,7.532,0,0,1,2.63-.454h3.379c.485,0,.688.213.688.688.017,1.324.017,2.633.014,3.94Z"/></svg>