<svg xmlns="http://www.w3.org/2000/svg" width="28.029" height="29.09" viewBox="0 0 28.029 29.09"><defs><style>.a{fill:none;stroke:#1f1f1f;stroke-linecap:round;stroke-linejoin:round;}</style></defs><g transform="translate(0.519 0.5)"><circle class="a" cx="2.269" cy="2.269" r="2.269" transform="translate(17.672 23.552)"/><path class="a" d="M243.769,777.572h12.986a2.584,2.584,0,0,0,2.567-2.463,2.55,2.55,0,0,0-2.5-2.712H242a4.379,4.379,0,0,1-4.048-2.808l-2.908-7.323a2.679,2.679,0,0,1,2.4-3.71h16.746" transform="translate(-234.849 -754.019)"/><path class="a" d="M243.341,775.23a3.975,3.975,0,0,1-3.676-2.463h0" transform="translate(-234.335 -752.134)"/><path class="a" d="M252.414,758.556a2.269,2.269,0,0,0,2.269-2.269" transform="translate(-233.091 -754.019)"/><circle class="a" cx="2.269" cy="2.269" r="2.269" transform="translate(7.45 23.552)"/><line class="a" x2="2.641" y2="6.421" transform="translate(3.53 8.294)"/><line class="a" x2="2.641" y2="6.421" transform="translate(7.823 8.294)"/><line class="a" x2="2.641" y2="6.421" transform="translate(11.757 8.294)"/><line class="a" x2="2.641" y2="6.421" transform="translate(15.691 8.294)"/><line class="a" x2="5.556" y2="13.505" transform="translate(18.751 5.405)"/><line class="a" x2="10.515" transform="translate(5.618 11.573)"/><path class="a" d="M259.521,754.88a1.392,1.392,0,0,0-1.287-.861h-1.282a2.268,2.268,0,0,0-2.269,2.268h3.9a1.019,1.019,0,0,0,.943-1.407Z" transform="translate(-232.599 -754.019)"/></g></svg>