<svg xmlns="http://www.w3.org/2000/svg" width="30" height="30" viewBox="0 0 30 30"><g transform="translate(-3.375 -3.375)"><path d="M25.057,17.194h-5.5v-5.5a1.181,1.181,0,0,0-2.363,0v5.5h-5.5a1.131,1.131,0,0,0-1.181,1.181,1.144,1.144,0,0,0,1.181,1.181h5.5v5.5a1.144,1.144,0,0,0,1.181,1.181,1.175,1.175,0,0,0,1.181-1.181v-5.5h5.5a1.181,1.181,0,0,0,0-2.363Z" transform="translate(0 0)"/><path d="M18.375,5.394a12.976,12.976,0,1,1-9.18,3.8,12.895,12.895,0,0,1,9.18-3.8m0-2.019a15,15,0,1,0,15,15,15,15,0,0,0-15-15Z"/></g></svg>