<svg xmlns="http://www.w3.org/2000/svg" width="22.071" height="21.026" viewBox="0 0 22.071 21.026"><defs><style>.a,.c,.e{fill:none;}.a{stroke:#fff;stroke-linejoin:round;}.a,.c{stroke-linecap:round;}.b{fill:#fff;}.b,.c{stroke:#faae11;}.d{stroke:none;}</style></defs><g transform="translate(0.515 0.5)"><circle class="a" cx="1.765" cy="1.765" r="1.765" transform="translate(12.368 16.497)"/><path class="a" d="M241.149,771.525h9.172a1.8,1.8,0,0,0,1.813-1.68A1.765,1.765,0,0,0,250.37,768H239.9a3.091,3.091,0,0,1-2.859-1.915l-2.054-4.994a1.833,1.833,0,0,1,1.695-2.53h11.827" transform="translate(-234.849 -755.027)"/><path class="a" d="M242.524,774.683a3.092,3.092,0,0,1-2.859-1.916h0" transform="translate(-235.92 -758.185)"/><path class="a" d="M252.414,758.052a1.765,1.765,0,0,0,1.765-1.765" transform="translate(-238.753 -754.523)"/><circle class="a" cx="1.765" cy="1.765" r="1.765" transform="translate(5.214 16.497)"/><line class="a" x2="2.054" y2="4.994" transform="translate(2.746 5.754)"/><line class="a" x2="2.054" y2="4.994" transform="translate(5.523 5.754)"/><line class="a" x2="2.054" y2="4.994" transform="translate(8.3 5.754)"/><line class="a" x2="2.054" y2="4.994" transform="translate(11.077 5.754)"/><line class="a" x2="4.321" y2="10.504" transform="translate(12.833 3.529)"/><line class="a" x2="8.179" transform="translate(3.773 8.251)"/><path class="a" d="M258.446,754.689a1.083,1.083,0,0,0-1-.67h-1a1.764,1.764,0,0,0-1.765,1.764h3.029a.793.793,0,0,0,.733-1.094Z" transform="translate(-239.257 -754.019)"/><g class="b" transform="translate(10.556 6.453)"><ellipse class="d" cx="5.5" cy="6" rx="5.5" ry="6"/><ellipse class="e" cx="5.5" cy="6" rx="5" ry="5.5"/></g><line class="c" y2="4.667" transform="translate(15.944 9.722)"/><line class="c" y2="4.667" transform="translate(18.278 12.056) rotate(90)"/></g></svg>