<svg xmlns="http://www.w3.org/2000/svg" xmlns:xlink="http://www.w3.org/1999/xlink" width="27.647" height="27.646" viewBox="0 0 27.647 27.646"><defs><style>.a{fill:url(#a);}.b{fill:url(#b);}.c{fill:url(#c);}</style><linearGradient id="a" x1="0.084" y1="0.916" x2="0.916" y2="0.084" gradientUnits="objectBoundingBox"><stop offset="0" stop-color="#ffd600"/><stop offset="0.5" stop-color="#ff0100"/><stop offset="1" stop-color="#d800b9"/></linearGradient><linearGradient id="b" x1="0.146" y1="0.854" x2="0.854" y2="0.146" gradientUnits="objectBoundingBox"><stop offset="0" stop-color="#ff6400"/><stop offset="0.5" stop-color="#ff0100"/><stop offset="1" stop-color="#fd0056"/></linearGradient><linearGradient id="c" x1="0.146" y1="0.854" x2="0.854" y2="0.146" gradientUnits="objectBoundingBox"><stop offset="0" stop-color="#f30072"/><stop offset="1" stop-color="#e50097"/></linearGradient></defs><path class="a" d="M27.563,8.124a10.148,10.148,0,0,0-.643-3.355A6.775,6.775,0,0,0,25.326,2.32,6.777,6.777,0,0,0,22.878.725,10.147,10.147,0,0,0,19.522.083C18.048.016,17.577,0,13.823,0S9.6.016,8.124.083A10.15,10.15,0,0,0,4.768.726,6.775,6.775,0,0,0,2.32,2.32,6.776,6.776,0,0,0,.725,4.768,10.148,10.148,0,0,0,.083,8.124C.016,9.6,0,10.069,0,13.823s.016,4.225.084,5.7a10.146,10.146,0,0,0,.642,3.355A6.774,6.774,0,0,0,2.32,25.326,6.773,6.773,0,0,0,4.769,26.92a10.143,10.143,0,0,0,3.355.643c1.474.067,1.945.083,5.7.083s4.225-.016,5.7-.083a10.144,10.144,0,0,0,3.355-.643,7.067,7.067,0,0,0,4.043-4.043,10.145,10.145,0,0,0,.643-3.355c.067-1.474.083-1.945.083-5.7s-.016-4.225-.083-5.7ZM25.075,19.409a7.648,7.648,0,0,1-.476,2.567A4.578,4.578,0,0,1,21.976,24.6a7.648,7.648,0,0,1-2.567.476c-1.457.067-1.895.081-5.586.081s-4.128-.014-5.586-.081A7.651,7.651,0,0,1,5.67,24.6a4.284,4.284,0,0,1-1.589-1.034,4.282,4.282,0,0,1-1.034-1.589,7.648,7.648,0,0,1-.476-2.567c-.066-1.457-.081-1.895-.081-5.586S2.5,9.7,2.571,8.237a7.654,7.654,0,0,1,.476-2.567,4.286,4.286,0,0,1,1.034-1.59,4.28,4.28,0,0,1,1.59-1.034,7.647,7.647,0,0,1,2.567-.476c1.458-.066,1.895-.081,5.586-.081h0c3.691,0,4.128.014,5.586.081a7.649,7.649,0,0,1,2.567.476,4.286,4.286,0,0,1,1.589,1.034A4.28,4.28,0,0,1,24.6,5.671a7.641,7.641,0,0,1,.476,2.567c.066,1.458.081,1.895.081,5.586s-.014,4.128-.081,5.586Zm0,0" transform="translate(0 0)"/><path class="b" d="M131.637,124.539a7.1,7.1,0,1,0,7.1,7.1A7.1,7.1,0,0,0,131.637,124.539Zm0,11.706a4.608,4.608,0,1,1,4.608-4.608A4.608,4.608,0,0,1,131.637,136.245Zm0,0" transform="translate(-117.814 -117.814)"/><path class="c" d="M365.247,90.284a1.659,1.659,0,1,1-1.659-1.659A1.659,1.659,0,0,1,365.247,90.284Zm0,0" transform="translate(-342.386 -83.84)"/></svg>