<svg xmlns="http://www.w3.org/2000/svg" width="52.256" height="52.256" viewBox="0 0 52.256 52.256"><path d="M69,65.507a3.445,3.445,0,0,1-.234,1.911,3.854,3.854,0,0,1-2.7,1.939c-.719.155-1.657.275-4.813-1.031-4.057-1.678-6.659-5.786-6.862-6.051a7.781,7.781,0,0,1-1.633-4.146,4.383,4.383,0,0,1,1.406-3.348,1.987,1.987,0,0,1,1.406-.5,3.858,3.858,0,0,1,.461.017c.4,0,.605.041.873.688.344.8,1.138,2.774,1.238,2.977a.822.822,0,0,1,.055.743,2.341,2.341,0,0,1-.443.633c-.2.234-.4.413-.6.664s-.4.454-.162.856a12.132,12.132,0,0,0,2.231,2.771,10.056,10.056,0,0,0,3.242,1.98.87.87,0,0,0,.969-.151,16.733,16.733,0,0,0,1.076-1.427.77.77,0,0,1,.987-.3c.371.131,2.334,1.1,2.75,1.3s.643.3.749.468Z" transform="translate(-34.618 -35.622)"/><path d="M48.13,0h-44A4.125,4.125,0,0,0,0,4.125v44a4.125,4.125,0,0,0,4.125,4.125h44a4.125,4.125,0,0,0,4.125-4.125v-44A4.125,4.125,0,0,0,48.13,0Zm-22,39.879a13.638,13.638,0,0,1-7.563-2.272L13.281,39.3,15,34.19a13.744,13.744,0,1,1,11.128,5.69Z"/></svg>